PathFileType	4	(X/Y/Z)	C:\Users\WrightLab\Desktop\Jo\P5V19.trc
DataRate	CameraRate	NumFrames	NumMarkers	Units	OrigDataRate	OrigDataStartFrame	OrigNumFrames
100.00	100.00	       15	19	mm	100.00	441	       705
Frame#	Time	Headset_Front			Headset_Back			Headset_Left			Headset_Right			Left_Shoulder			Right_Shoulder			Sternum			C7			Left Elbow			Right Elbow			Left Wrist			Right Wrist			Left ASIS			Right ASIS			S2			Left Knee			Right Knee			Left Ankle			Right Ankle			
		X1	Y1	Z1	X2	Y2	Z2	X3	Y3	Z3	X4	Y4	Z4	X5	Y5	Z5	X6	Y6	Z6	X7	Y7	Z7	X8	Y8	Z8	X9	Y9	Z9	X10	Y10	Z10	X11	Y11	Z11	X12	Y12	Z12	X13	Y13	Z13	X14	Y14	Z14	X15	Y15	Z15	X16	Y16	Z16	X17	Y17	Z17	X18	Y18	Z18	X19	Y19	Z19	

441	4.400										-815.47198	1660.21960	1087.78955	-563.18762	1508.35571	905.31610	-973.42371	1488.84167	877.13428	-793.86328	1347.36292	985.35553				-473.42230	1241.20801	852.84369	-1062.03955	1233.52173	763.25195	-552.22467	1130.81409	1036.01306	-1062.81250	1045.02283	923.50049	-663.55707	951.42969	990.63971	-948.05389	980.78552	937.12988	-702.99463	997.72168	700.14838	-675.04462	521.25439	1038.81860	-985.40540	522.84631	864.99817	-552.29742	251.66283	763.88031	-946.62335	117.35268	763.91925	
442	4.410										-816.01465	1659.83679	1096.56995	-565.29126	1509.54578	910.04895	-976.85065	1489.89648	888.40527	-795.62799	1348.34167	993.46942				-476.16473	1243.64111	856.03387	-1068.57678	1234.85950	776.40051	-552.16742	1132.86572	1037.87219	-1066.49792	1047.37402	937.25818	-663.01190	952.74994	995.73663	-947.57471	980.20288	946.07477	-709.84662	998.44684	709.49121	-675.06604	526.77600	1050.26697	-990.07880	520.96851	864.92810	-562.76184	250.63805	779.64087	-947.30933	118.74342	765.15863	
443	4.420										-816.41034	1659.77722	1105.38428	-567.92444	1511.18042	914.93494	-980.02637	1490.46252	899.56720	-796.84137	1348.86304	1001.47162				-479.70145	1245.74658	856.77551	-1074.46033	1236.12463	789.29895	-551.47437	1134.05005	1040.44739	-1069.11353	1048.97583	950.71014	-661.57965	954.15076	1000.99615	-947.85358	980.21503	954.99200	-715.18530	999.70404	716.09729	-675.45911	532.32581	1060.50415	-992.18542	521.17737	866.46985	-572.59003	249.17581	794.77423	-947.96899	117.80467	767.51782	
444	4.430										-815.87524	1659.85205	1114.15906	-571.39130	1511.76868	917.26373	-983.33026	1491.18823	910.79089	-798.06970	1349.34106	1009.46057				-482.86444	1246.97217	857.55804	-1080.41748	1237.21667	802.28540	-551.38000	1135.57837	1041.91736	-1072.16357	1051.05469	964.31848	-661.63623	955.19586	1005.24463	-947.43634	979.68842	963.46149	-719.86426	1000.53845	723.61676	-675.28760	537.42859	1071.05554	-992.48779	522.94855	869.62097	-582.83533	246.97563	809.38074	-948.09686	121.10992	765.38556	
445	4.440										-815.49182	1660.22900	1122.97986	-574.13306	1512.76843	921.46875	-986.66113	1491.98853	922.05750	-799.31329	1349.91260	1017.41565				-485.99448	1249.41663	858.89893	-1085.60278	1238.09204	815.11230	-551.03125	1136.97949	1044.95020	-1074.22424	1052.56726	977.68842	-661.79602	955.53845	1009.55603	-946.65424	978.94855	971.80591	-723.93536	1001.33112	731.58923	-675.33868	541.21075	1080.69849	-993.03711	523.85596	873.30981	-592.89728	243.71057	825.16821	-948.10687	121.47179	766.44189	
446	4.450										-815.30017	1660.48083	1131.67737	-576.36908	1513.14978	926.68372	-989.27399	1492.19690	933.08209	-799.96216	1349.91321	1025.05164				-489.48407	1247.38318	854.33026	-1090.77771	1239.06421	827.97369	-550.58356	1137.84277	1046.74402	-1076.71777	1054.44507	991.13080	-662.79468	956.45947	1013.24384	-946.45978	978.85077	980.10345	-727.60120	1002.40295	738.18939	-675.17450	546.03552	1089.27136	-993.32532	524.40704	877.53955	-602.94641	239.19283	841.63922	-948.57654	123.17946	767.46289	
447	4.460										-815.04486	1660.12646	1140.22461	-578.95831	1514.35376	931.58936	-991.70496	1492.43823	944.05017	-801.13330	1350.17029	1032.71667				-492.20389	1249.90356	860.75031	-1095.16418	1239.54871	840.90271	-549.75787	1139.20557	1049.89795	-1078.73901	1056.16846	1004.52252	-661.45721	956.87805	1018.88507	-945.43652	978.30341	988.01788	-731.32410	1003.72717	745.41351	-674.68433	549.21564	1097.92920	-993.95844	525.36237	882.74359	-612.88446	234.74915	859.09625	-948.74146	123.80107	767.61700	
448	4.470										-814.75330	1659.61768	1148.60693	-581.44836	1514.57251	934.86047	-993.82251	1492.33228	954.93414	-802.00366	1350.19189	1040.20007				-495.87656	1250.54749	861.38831	-1099.54919	1240.21777	853.57141	-548.87628	1139.35974	1051.85022	-1080.32263	1057.45947	1017.78284	-661.47168	957.60083	1025.03394	-945.27289	978.22870	995.99689	-734.84344	1005.37726	751.96033	-675.22992	552.00916	1106.06775	-993.46765	525.00946	887.88165	-622.60699	229.41176	875.75055	-949.36523	125.43919	768.77924	
449	4.480										-813.97272	1658.86133	1156.87451	-583.53857	1514.18909	938.68036	-995.79797	1492.27588	965.78033	-802.25641	1349.76477	1047.53540				-498.59512	1253.26257	866.04724	-1103.77393	1240.67126	866.20477	-548.87262	1140.59583	1055.58105	-1081.77002	1058.88184	1030.93213	-662.62592	957.79248	1028.92932	-944.53943	977.73285	1003.97223	-737.65308	1005.65350	758.40308	-676.42957	554.99487	1113.73621	-992.54706	524.10297	893.23444	-632.22943	222.80615	893.32440	-949.80566	126.26541	769.92731	
450	4.490										-813.06317	1658.44031	1165.21118	-585.56342	1514.41882	944.61487	-997.41321	1491.90845	976.55554	-802.87286	1349.68323	1054.92761				-501.25372	1253.45435	868.88123	-1107.47119	1240.84155	878.74017	-548.79529	1141.19556	1058.55261	-1082.61182	1059.93921	1043.93042	-661.33179	957.52441	1033.21912	-944.14447	977.43036	1012.09735	-740.97699	1006.78101	763.59106	-677.51337	557.22577	1121.40698	-992.62695	524.46234	899.25781	-641.25122	216.56779	913.99750	-950.26575	127.52935	770.33295	
451	4.500										-811.91968	1658.42126	1173.59448	-646.15063	1470.17749	806.36456	-999.10474	1491.70923	987.41949	-803.06622	1349.33362	1062.22583				-504.72986	1254.71387	870.51068	-1110.90527	1240.98157	891.05994	-548.56494	1141.84314	1062.44604	-1083.64050	1061.15979	1056.98218	-660.67291	958.61536	1038.25195	-943.64380	977.02441	1020.34485	-744.76941	1006.98566	772.00903	-677.61670	559.70227	1128.46655	-992.04010	523.96588	905.28467	-650.02081	209.71396	931.61053	-950.74426	128.55013	771.77020	
452	4.510										-810.57794	1658.20239	1181.97144				-1000.01984	1491.12976	998.09216	-802.98358	1348.88269	1069.49866				-507.81699	1254.83960	874.35156	-1114.15698	1241.13977	903.49292	-547.31567	1141.96045	1066.31702	-1084.58423	1062.33521	1069.97388	-662.50330	958.53558	1042.73523	-942.97833	976.40027	1028.54517	-748.26642	1007.84711	776.49091	-678.03363	562.14697	1135.79041	-991.05035	523.24115	911.66803	-659.35596	202.54857	952.92395	-951.04163	129.80023	771.88855	
453	4.520										-809.19434	1657.63110	1190.24817	-599.18750	1511.86353	941.01373	-1001.74463	1490.94788	1008.99622	-802.96478	1348.61108	1076.89990				-510.88586	1255.55627	877.26050	-1117.02661	1240.96094	915.83759	-547.03003	1141.63635	1070.37463	-1084.72754	1063.05383	1082.71814	-661.17261	959.27661	1047.54236	-942.59009	976.09009	1037.05933	-751.61774	1008.23419	782.91858	-677.77710	564.42944	1144.11975	-990.45624	522.93939	918.53931	-668.21936	195.77898	973.92352	-951.46002	130.69635	774.24207	
454	4.530										-808.00897	1657.13098	1198.48816	-599.00085	1513.29150	950.39655	-1003.26953	1490.80664	1019.82813	-803.11768	1348.33301	1084.50195				-513.52948	1255.39368	880.47211	-1119.51587	1240.81848	928.24115	-546.84711	1141.64685	1073.75232	-1085.10120	1063.94226	1095.54138	-660.32068	958.60876	1053.58142	-941.73615	975.31525	1045.50037	-755.30817	1008.83472	788.99475	-677.60315	565.38458	1150.01050	-989.55573	522.47131	925.52960	-677.01349	187.88776	994.14337	-951.65021	131.93068	774.98163	
455	4.540										-806.54059	1656.23865	1206.68494	-598.58771	1514.24487	961.92877	-1003.77765	1490.04590	1030.44946	-802.98499	1347.95471	1092.09814				-516.95502	1256.08398	884.07056	-1121.58484	1240.70068	940.71484	-545.77612	1141.83813	1077.99829	-1085.07129	1064.55518	1108.22620	-659.23413	958.69824	1059.09412	-941.18091	974.87665	1054.17346	-758.96198	1008.11432	796.14880	-677.14038	565.65082	1156.56226	-988.62573	521.72705	932.81573	-684.92303	180.16119	1015.93439	-951.89233	133.12071	775.52222	
